<?xml version="1.0" encoding="UTF-8"?>
<!DOCTYPE svg PUBLIC "-//W3C//DTD SVG 1.1//EN" "http://www.w3.org/Graphics/SVG/1.1/DTD/svg11.dtd">
<svg xmlns="http://www.w3.org/2000/svg" version="1.1" width="900px" height="1200px"
  style="shape-rendering:geometricPrecision; text-rendering:geometricPrecision; image-rendering:optimizeQuality; fill-rule:evenodd; clip-rule:evenodd"
  xmlns:xlink="http://www.w3.org/1999/xlink">
  <g>
    <path style="opacity:1" fill="#111827"
      d="M -0.5,-0.5 C 173.5,-0.5 347.5,-0.5 521.5,-0.5C 524.21,35.2205 531.71,69.8871 544,103.5C 552.389,123.219 565.222,139.386 582.5,152C 606.669,166.585 631.002,180.919 655.5,195C 673.242,207.072 687.075,222.572 697,241.5C 706.582,261.249 715.582,281.249 724,301.5C 731.973,321.119 743.473,338.286 758.5,353C 776.037,365.928 795.704,373.595 817.5,376C 844.78,378.239 872.113,379.073 899.5,378.5C 899.5,652.167 899.5,925.833 899.5,1199.5C 599.5,1199.5 299.5,1199.5 -0.5,1199.5C -0.5,1125.5 -0.5,1051.5 -0.5,977.5C 16.8135,955.34 35.4802,934.173 55.5,914C 74.0612,896.549 95.7279,884.549 120.5,878C 127.422,876.457 134.422,875.457 141.5,875C 164.002,874.523 186.502,874.689 209,875.5C 255.633,879.851 290.966,862.184 315,822.5C 329.451,796.484 340.785,769.151 349,740.5C 359.782,702.761 367.948,664.428 373.5,625.5C 374.984,630.925 375.651,636.591 375.5,642.5C 375.024,650.83 374.691,659.163 374.5,667.5C 375.5,667.5 376.5,667.5 377.5,667.5C 378.68,652.832 378.68,638.165 377.5,623.5C 379.366,616.969 380.366,610.303 380.5,603.5C 379.002,590.556 378.168,577.556 378,564.5C 377.012,561.576 376.346,558.576 376,555.5C 375.648,545.81 374.981,536.144 374,526.5C 373.121,523.654 371.454,522.987 369,524.5C 368.501,529.155 368.334,533.821 368.5,538.5C 360.208,493.772 347.708,450.106 331,407.5C 321.217,383.06 306.717,361.893 287.5,344C 274.045,333.277 258.712,326.944 241.5,325C 230.7,323.943 219.866,323.443 209,323.5C 186.502,324.287 164.002,324.453 141.5,324C 120.634,322.822 101.301,316.822 83.5,306C 62.9025,292.746 44.7358,276.579 29,257.5C 19.387,245.246 9.55366,233.246 -0.5,221.5C -0.5,147.5 -0.5,73.5 -0.5,-0.5 Z" />
  </g>
  <g>
    <path style="opacity:1" fill="#66e7f8"
      d="M 521.5,-0.5 C 647.5,-0.5 773.5,-0.5 899.5,-0.5C 899.5,125.833 899.5,252.167 899.5,378.5C 872.113,379.073 844.78,378.239 817.5,376C 795.704,373.595 776.037,365.928 758.5,353C 743.473,338.286 731.973,321.119 724,301.5C 715.582,281.249 706.582,261.249 697,241.5C 687.075,222.572 673.242,207.072 655.5,195C 631.002,180.919 606.669,166.585 582.5,152C 565.222,139.386 552.389,123.219 544,103.5C 531.71,69.8871 524.21,35.2205 521.5,-0.5 Z" />
  </g>
  <g>
    <path style="opacity:1" fill="#66e7f8"
      d="M -0.5,221.5 C 9.55366,233.246 19.387,245.246 29,257.5C 44.7358,276.579 62.9025,292.746 83.5,306C 101.301,316.822 120.634,322.822 141.5,324C 164.002,324.453 186.502,324.287 209,323.5C 219.866,323.443 230.7,323.943 241.5,325C 258.712,326.944 274.045,333.277 287.5,344C 306.717,361.893 321.217,383.06 331,407.5C 347.708,450.106 360.208,493.772 368.5,538.5C 373.942,567.261 375.609,596.261 373.5,625.5C 367.948,664.428 359.782,702.761 349,740.5C 340.785,769.151 329.451,796.484 315,822.5C 290.966,862.184 255.633,879.851 209,875.5C 186.502,874.689 164.002,874.523 141.5,875C 134.422,875.457 127.422,876.457 120.5,878C 95.7279,884.549 74.0612,896.549 55.5,914C 35.4802,934.173 16.8135,955.34 -0.5,977.5C -0.5,725.5 -0.5,473.5 -0.5,221.5 Z" />
  </g>
  <g>
    <path style="opacity:1" fill="#000101"
      d="M 373.5,625.5 C 375.609,596.261 373.942,567.261 368.5,538.5C 368.334,533.821 368.501,529.155 369,524.5C 371.454,522.987 373.121,523.654 374,526.5C 374.981,536.144 375.648,545.81 376,555.5C 376.346,558.576 377.012,561.576 378,564.5C 378.168,577.556 379.002,590.556 380.5,603.5C 380.366,610.303 379.366,616.969 377.5,623.5C 378.68,638.165 378.68,652.832 377.5,667.5C 376.5,667.5 375.5,667.5 374.5,667.5C 374.691,659.163 375.024,650.83 375.5,642.5C 375.651,636.591 374.984,630.925 373.5,625.5 Z" />
  </g>
</svg>