<svg id="visual" viewBox="0 0 900 600" width="900" height="600" xmlns="http://www.w3.org/2000/svg" xmlns:xlink="http://www.w3.org/1999/xlink" version="1.1"><rect x="0" y="0" width="900" height="600" fill="#111827"></rect><path d="M0 491L21.5 481.3C43 471.7 86 452.3 128.8 453.5C171.7 454.7 214.3 476.3 257.2 488.3C300 500.3 343 502.7 385.8 507.7C428.7 512.7 471.3 520.3 514.2 514.5C557 508.7 600 489.3 642.8 484.7C685.7 480 728.3 490 771.2 493.2C814 496.3 857 492.7 878.5 490.8L900 489L900 601L878.5 601C857 601 814 601 771.2 601C728.3 601 685.7 601 642.8 601C600 601 557 601 514.2 601C471.3 601 428.7 601 385.8 601C343 601 300 601 257.2 601C214.3 601 171.7 601 128.8 601C86 601 43 601 21.5 601L0 601Z" fill="#67e8f9" stroke-linecap="round" stroke-linejoin="miter"></path></svg>