<svg id="visual" viewBox="0 0 900 600" width="900" height="600" xmlns="http://www.w3.org/2000/svg" xmlns:xlink="http://www.w3.org/1999/xlink" version="1.1"><rect x="0" y="0" width="900" height="600" fill="#111827"></rect><defs><linearGradient id="grad1_0" x1="33.3%" y1="0%" x2="100%" y2="100%"><stop offset="20%" stop-color="#111827" stop-opacity="1"></stop><stop offset="80%" stop-color="#111827" stop-opacity="1"></stop></linearGradient></defs><defs><linearGradient id="grad2_0" x1="0%" y1="0%" x2="66.7%" y2="100%"><stop offset="20%" stop-color="#111827" stop-opacity="1"></stop><stop offset="80%" stop-color="#111827" stop-opacity="1"></stop></linearGradient></defs><g transform="translate(900, 0)"><path d="M0 378.6C-56.1 379.7 -112.1 380.8 -144.9 349.8C-177.6 318.8 -187.1 255.6 -218.5 218.5C-249.9 181.4 -303.2 170.2 -333.5 138.1C-363.9 106.1 -371.2 53 -378.6 0L0 0Z" fill="#67e8f9"></path></g><g transform="translate(0, 600)"><path d="M0 -378.6C34.1 -335.5 68.1 -292.3 116 -279.9C163.8 -267.5 225.4 -285.8 267.7 -267.7C310 -249.6 333 -195 348.3 -144.3C363.6 -93.6 371.1 -46.8 378.6 0L0 0Z" fill="#67e8f9"></path></g></svg>